<svg width="22" height="24" viewBox="0 0 22 24" fill="none" xmlns="http://www.w3.org/2000/svg">
<path d="M14.4998 17.8333V19C14.4998 19.9283 14.1311 20.8185 13.4747 21.4749C12.8183 22.1313 11.9281 22.5 10.9998 22.5C10.0716 22.5 9.18134 22.1313 8.52496 21.4749C7.86859 20.8185 7.49984 19.9283 7.49984 19V17.8333M14.4998 17.8333H7.49984M14.4998 17.8333H18.6882C19.135 17.8333 19.359 17.8333 19.5398 17.7727C19.7099 17.7151 19.8644 17.619 19.9913 17.4919C20.1182 17.3648 20.214 17.2102 20.2713 17.04C20.3332 16.858 20.3332 16.634 20.3332 16.1837C20.3332 15.9865 20.3332 15.8885 20.3168 15.794C20.288 15.6173 20.219 15.4497 20.115 15.304C20.059 15.2258 19.989 15.1558 19.8502 15.017L19.3952 14.562C19.3226 14.4894 19.2651 14.4031 19.2258 14.3082C19.1866 14.2134 19.1664 14.1117 19.1665 14.009V9.66667C19.1665 8.59421 18.9553 7.53224 18.5449 6.54142C18.1344 5.55059 17.5329 4.65031 16.7745 3.89196C16.0162 3.13362 15.1159 2.53206 14.1251 2.12165C13.1343 1.71124 12.0723 1.5 10.9998 1.5C9.92737 1.5 8.86541 1.71124 7.87459 2.12165C6.88376 2.53206 5.98348 3.13362 5.22513 3.89196C4.46679 4.65031 3.86523 5.55059 3.45482 6.54142C3.04441 7.53224 2.83317 8.59421 2.83317 9.66667V14.009C2.83324 14.1117 2.81309 14.2134 2.77385 14.3082C2.73462 14.4031 2.67707 14.4894 2.6045 14.562L2.1495 15.017C2.0095 15.157 1.94067 15.2258 1.88584 15.3028C1.78087 15.4487 1.711 15.6167 1.68167 15.794C1.6665 15.8873 1.6665 15.9865 1.6665 16.1837C1.6665 16.634 1.6665 16.858 1.72717 17.04C1.78472 17.2104 1.88091 17.3652 2.00821 17.4923C2.13551 17.6194 2.29048 17.7154 2.461 17.7727C2.64184 17.8333 2.86467 17.8333 3.3115 17.8333H7.49984" stroke="white" stroke-width="1.4" stroke-linecap="round" stroke-linejoin="round"/>
</svg>
