<svg width="22" height="20" viewBox="0 0 22 20" fill="none" xmlns="http://www.w3.org/2000/svg">
<path d="M19.2496 10.975L12.6497 17.576C12.2122 18.0134 11.6188 18.2591 11.0001 18.2591C10.3814 18.2591 9.78797 18.0134 9.35041 17.576L2.75057 10.9761C2.205 10.4353 1.77163 9.79208 1.47532 9.08333C1.17902 8.37458 1.02562 7.61429 1.02394 6.84609C1.02226 6.0779 1.17232 5.31694 1.46552 4.6069C1.75872 3.89686 2.18927 3.25173 2.73247 2.70853C3.27566 2.16533 3.9208 1.73478 4.63084 1.44158C5.34088 1.14838 6.10184 0.998318 6.87003 1C7.63822 1.00168 8.39852 1.15508 9.10727 1.45138C9.81602 1.74769 10.4593 2.18107 11.0001 2.72663C12.0986 1.65548 13.5748 1.06024 15.1091 1.06986C16.6434 1.07947 18.1121 1.69316 19.1971 2.77799C20.282 3.86283 20.8959 5.33144 20.9058 6.8657C20.9156 8.39996 20.3206 9.87632 19.2496 10.975Z" fill="currentColor" stroke="currentColor" stroke-width="2" stroke-linecap="round" stroke-linejoin="round"/>
</svg>
