<svg width="22" height="20" viewBox="0 0 22 20" fill="none" xmlns="http://www.w3.org/2000/svg">
<path d="M19.2496 11.3324L12.6497 17.9334C12.2122 18.3708 11.6188 18.6166 11.0001 18.6166C10.3814 18.6166 9.78797 18.3708 9.35041 17.9334L2.75057 11.3336C2.205 10.7928 1.77163 10.1495 1.47532 9.44076C1.17902 8.73202 1.02562 7.97172 1.02394 7.20353C1.02226 6.43534 1.17232 5.67438 1.46552 4.96434C1.75872 4.2543 2.18927 3.60916 2.73247 3.06597C3.27566 2.52277 3.9208 2.09221 4.63084 1.79902C5.34088 1.50582 6.10184 1.35575 6.87003 1.35744C7.63822 1.35912 8.39852 1.51251 9.10727 1.80882C9.81602 2.10512 10.4593 2.5385 11.0001 3.08407C12.0986 2.01292 13.5748 1.41768 15.1091 1.42729C16.6434 1.43691 18.1121 2.0506 19.1971 3.13543C20.282 4.22026 20.8959 5.68888 20.9058 7.22314C20.9156 8.7574 20.3206 10.2338 19.2496 11.3324Z" stroke="currentColor" stroke-width="2" stroke-linecap="round" stroke-linejoin="round"/>
</svg>
