<svg width="22" height="24" viewBox="0 0 22 24" fill="none" xmlns="http://www.w3.org/2000/svg">
<path d="M10.9951 1.92236C11.3226 1.92236 11.5968 2.01401 11.8496 2.20361V2.20459L19.9277 8.31982L19.9336 8.32471L19.9404 8.32861C20.1115 8.45395 20.2452 8.61266 20.3467 8.81689L20.3477 8.81982C20.4498 9.02346 20.4999 9.23311 20.5 9.46143V22.4995C20.5 22.6213 20.4669 22.722 20.3447 22.8442C20.2224 22.9665 20.1219 22.9995 20 22.9995H14.9238C14.8771 22.9995 14.8465 22.9944 14.8232 22.9849L14.7676 22.9448C14.7318 22.9086 14.7119 22.8778 14.7119 22.7876V15.6343C14.7119 15.0396 14.5 14.4937 14.0713 14.0649C13.6424 13.636 13.0961 13.4224 12.5 13.4224H9.5C8.90525 13.4224 8.35969 13.6347 7.93164 14.063C7.50132 14.4915 7.28811 15.0382 7.28809 15.6343V22.7896C7.28806 22.8806 7.26758 22.9097 7.23242 22.9448C7.19736 22.9798 7.16812 22.9995 7.07715 22.9995H2C1.87813 22.9995 1.77755 22.9665 1.65527 22.8442C1.53314 22.722 1.5 22.6213 1.5 22.4995V9.46143C1.50006 9.23311 1.55023 9.02346 1.65234 8.81982C1.75522 8.61468 1.89001 8.45567 2.06152 8.32959L2.06738 8.32568L2.07227 8.3208L10.1504 2.20361L10.1533 2.20166C10.3981 2.01472 10.6668 1.92243 10.9951 1.92236Z" fill="currentColor" stroke="currentColor" stroke-width="2"/>
</svg>
