<svg width="22" height="24" viewBox="0 0 22 24" fill="none" xmlns="http://www.w3.org/2000/svg">
<path d="M19.1665 22.2082C19.4759 22.2082 19.7727 22.0853 19.9915 21.8665C20.2103 21.6477 20.3332 21.3509 20.3332 21.0415V19.5878C20.3378 16.3142 15.6968 13.7498 10.9998 13.7498C6.30284 13.7498 1.6665 16.3142 1.6665 19.5878V21.0415C1.6665 21.3509 1.78942 21.6477 2.00821 21.8665C2.22701 22.0853 2.52375 22.2082 2.83317 22.2082H19.1665ZM15.2045 5.99617C15.2045 6.54834 15.0957 7.09509 14.8844 7.60523C14.6731 8.11536 14.3634 8.57888 13.973 8.96932C13.5825 9.35976 13.119 9.66947 12.6089 9.88078C12.0988 10.0921 11.552 10.2008 10.9998 10.2008C10.4477 10.2008 9.90092 10.0921 9.39078 9.88078C8.88065 9.66947 8.41713 9.35976 8.02669 8.96932C7.63625 8.57888 7.32654 8.11536 7.11523 7.60523C6.90393 7.09509 6.79517 6.54834 6.79517 5.99617C6.79517 4.88102 7.23816 3.81155 8.02669 3.02302C8.81522 2.23449 9.88469 1.7915 10.9998 1.7915C12.115 1.7915 13.1845 2.23449 13.973 3.02302C14.7615 3.81155 15.2045 4.88102 15.2045 5.99617Z" stroke="currentColor" stroke-width="2" stroke-linecap="round" stroke-linejoin="round"/>
</svg>
