<svg width="23" height="23" viewBox="0 0 23 23" fill="none" xmlns="http://www.w3.org/2000/svg">
<path d="M21.625 21.625L14.875 14.875M1.375 9.25C1.375 10.2842 1.57869 11.3082 1.97445 12.2636C2.3702 13.2191 2.95027 14.0872 3.68153 14.8185C4.4128 15.5497 5.28093 16.1298 6.23637 16.5256C7.19181 16.9213 8.21584 17.125 9.25 17.125C10.2842 17.125 11.3082 16.9213 12.2636 16.5256C13.2191 16.1298 14.0872 15.5497 14.8185 14.8185C15.5497 14.0872 16.1298 13.2191 16.5256 12.2636C16.9213 11.3082 17.125 10.2842 17.125 9.25C17.125 8.21584 16.9213 7.19181 16.5256 6.23637C16.1298 5.28093 15.5497 4.4128 14.8185 3.68153C14.0872 2.95027 13.2191 2.3702 12.2636 1.97445C11.3082 1.57869 10.2842 1.375 9.25 1.375C8.21584 1.375 7.19181 1.57869 6.23637 1.97445C5.28093 2.3702 4.4128 2.95027 3.68153 3.68153C2.95027 4.4128 2.3702 5.28093 1.97445 6.23637C1.57869 7.19181 1.375 8.21584 1.375 9.25Z" stroke="currentColor" stroke-width="2.2" stroke-linecap="round" stroke-linejoin="round"/>
</svg>
