<svg width="20" height="20" viewBox="0 0 20 20" fill="none" xmlns="http://www.w3.org/2000/svg">
<path d="M3.33317 9.99984H5.83317C6.2752 9.99984 6.69912 10.1754 7.01168 10.488C7.32424 10.8006 7.49984 11.2245 7.49984 11.6665V15.8332C7.49984 16.2752 7.32424 16.6991 7.01168 17.0117C6.69912 17.3242 6.2752 17.4998 5.83317 17.4998H3.33317C2.89114 17.4998 2.46722 17.3242 2.15466 17.0117C1.8421 16.6991 1.6665 16.2752 1.6665 15.8332V9.99984C1.6665 5.39734 5.39734 1.6665 9.99984 1.6665C14.6023 1.6665 18.3332 5.39734 18.3332 9.99984V15.8332C18.3332 16.2752 18.1576 16.6991 17.845 17.0117C17.5325 17.3242 17.1085 17.4998 16.6665 17.4998H14.1665C13.7245 17.4998 13.3006 17.3242 12.988 17.0117C12.6754 16.6991 12.4998 16.2752 12.4998 15.8332V11.6665C12.4998 11.2245 12.6754 10.8006 12.988 10.488C13.3006 10.1754 13.7245 9.99984 14.1665 9.99984H16.6665C16.6665 8.23173 15.9641 6.53603 14.7139 5.28579C13.4636 4.03555 11.7679 3.33317 9.99984 3.33317C8.23173 3.33317 6.53603 4.03555 5.28579 5.28579C4.03555 6.53603 3.33317 8.23173 3.33317 9.99984Z" fill="white"/>
</svg>
