<svg width="20" height="20" viewBox="0 0 20 20" fill="none" xmlns="http://www.w3.org/2000/svg">
<path d="M4.16683 5.41686V14.5835H0.833496V5.41686H4.16683ZM5.8335 15.1752L12.5002 18.9252V1.0752L5.8335 4.8252V15.1752ZM17.9843 6.48353L17.4827 5.8177L16.1527 6.8227L16.6543 7.48769C17.2009 8.21134 17.4965 9.09358 17.4962 10.0005C17.4959 10.9074 17.1998 11.7894 16.6527 12.5127L16.1502 13.1769L17.4793 14.1819L17.9818 13.5177C18.7478 12.5051 19.1625 11.2703 19.1629 10.0006C19.1634 8.73096 18.7496 7.49582 17.9843 6.4827" fill="white"/>
<path d="M15.6576 8.24068L15.1551 7.57568L13.8251 8.57985L14.3276 9.24485C14.4916 9.46189 14.5804 9.72653 14.5804 9.9986C14.5804 10.2707 14.4916 10.5353 14.3276 10.7524L13.8242 11.4165L15.1534 12.4224L15.6559 11.7574C16.0387 11.2512 16.246 10.6339 16.2463 9.9993C16.2466 9.36465 16.0399 8.74722 15.6576 8.24068Z" fill="white"/>
</svg>
